<svg xmlns="http://www.w3.org/2000/svg" viewBox="0 0 512 512" style="height: 512px; width: 512px;"><path d="M0 0h512v512H0z" fill="#000000" fill-opacity="1"></path><g class="" transform="translate(0,0)" style=""><g><path d="M32 24C0 312 128 488 256 488C384 488 512 312 480 24C320 56 192 56 32 24Z" class="selected" fill="#f8e71c" fill-opacity="1" stroke="#000000" stroke-opacity="1" stroke-width="2"></path><path d="M255.9 82.8C260.4 82.8 265.3 83.9 268.7 85.7L384.6 152.8C392 156.9 392 163.7 384.6 168L268.7 234.9C261.5 239.2 250.2 239.2 243 234.9L126.8 168C119.5 163.7 119.5 156.9 126.8 152.8L243 85.7C246.4 83.9 250.9 82.8 255.9 82.8Z" class="" fill="#000000" fill-opacity="1" stroke="#000000" stroke-opacity="1" stroke-width="2"></path><path d="M166.9 145.4C145.3 145 133.8 160.4 148.7 169.7C158.3 174.5 172.4 174.1 181.4 168.9C190.2 163.6 190.9 155.2 182.9 149.5C178.6 147 172.9 145.5 166.9 145.4Z" class="" fill="#ffffff" fill-opacity="1" stroke="#000000" stroke-opacity="1" stroke-width="2"></path><path d="M345.5 145.5C324.7 145.9 314.2 161 329.2 170C338.8 174.9 353.1 174.6 362.2 169.3C371.1 164 371.7 155.4 363.4 149.7C359.2 147.3 353.5 145.7 347.5 145.5L345.5 145.5Z" class="" fill="#ffffff" fill-opacity="1" stroke="#000000" stroke-opacity="1" stroke-width="2"></path><path d="M256.5 145.5C249.9 145.4 243.5 147 238.8 149.7C228.6 155.3 228.4 164.8 238.2 170.6C248.1 176.4 264 176.2 273.3 170C288.3 161 277.9 145.7 256.5 145.5Z" class="" fill="#ffffff" fill-opacity="1" stroke="#000000" stroke-opacity="1" stroke-width="2"></path><path d="M115.5 186.5C117 186.6 118.9 187 121.1 188.1L232.6 252.6C239.8 256.7 245.5 266.8 245.5 275.1L245.5 394.8C245.5 403.1 239.8 406.5 232.6 402.4L121.2 338C113.8 333.7 108 323.8 108 315.4L108 195.7C108 189.5 111 186.5 115.5 186.5Z" class="" fill="#000000" fill-opacity="1" stroke="#000000" stroke-opacity="1" stroke-width="2"></path><path d="M396.8 186.5C401 186.5 404 189.5 404 195.7L404 315.4C404 323.8 398 333.7 391 338L279.5 402.4C272.3 406.5 266.6 403.1 266.6 394.8L266.6 275.1C266.6 266.8 272.3 256.7 279.5 252.6L391 188.1C393.1 187 395.2 186.6 396.8 186.5Z" class="" fill="#000000" fill-opacity="1" stroke="#000000" stroke-opacity="1" stroke-width="2"></path><path d="M211.8 252L210.7 252C205.4 252.4 202.2 256.8 202.2 263.6C201.6 274 209.4 287.7 219.1 293.4C228.9 299 236.7 294.5 236.3 283.5C236.5 269.3 223 252.4 211.8 252Z" class="" fill="#ffffff" fill-opacity="1" stroke="#000000" stroke-opacity="1" stroke-width="2"></path><path d="M342.7 273.8C331.5 273.9 317.9 291 318 305.2C318.1 315.6 325.7 319.6 335.2 314.1C344.6 308.6 352.2 295.8 352.3 285.3C352.3 278.6 349 274.2 343.8 273.8L342.7 273.8Z" class="" fill="#c9c9c9" fill-opacity="1" stroke="#000000" stroke-opacity="1" stroke-width="2"></path><path d="M125.8 296.3C120.4 296.6 117.1 301 117.1 307.9C116.6 318.4 124.4 332 134.1 337.7C143.9 343.2 151.7 338.7 151.3 327.6C151.3 313.1 137.2 295.8 125.8 296.3Z" class="" fill="#c9c9c9" fill-opacity="1" stroke="#000000" stroke-opacity="1" stroke-width="2"></path></g></g></svg>